<svg xmlns="http://www.w3.org/2000/svg" viewBox="0 0 300 150" role="img" aria-label="SoundCloud">
  <defs>
    <linearGradient id="sc" x1="0" y1="0" x2="0" y2="1">
      <stop offset="0" stop-color="#ff7700"/>
      <stop offset="1" stop-color="#ff3300"/>
    </linearGradient>
  </defs>
  <rect width="300" height="150" fill="url(#sc)"/>
  <g fill="#fff">
    <rect x="55"  y="66" width="5" height="24" rx="2.5"/>
    <rect x="67"  y="58" width="5" height="40" rx="2.5"/>
    <rect x="79"  y="52" width="5" height="52" rx="2.5"/>
    <rect x="91"  y="46" width="5" height="62" rx="2.5"/>
    <rect x="103" y="40" width="5" height="72" rx="2.5"/>
    <rect x="115" y="36" width="5" height="80" rx="2.5"/>
    <rect x="127" y="44" width="5" height="66" rx="2.5"/>
    <rect x="139" y="34" width="5" height="84" rx="2.5"/>
    <rect x="151" y="42" width="5" height="70" rx="2.5"/>
    <rect x="163" y="38" width="5" height="76" rx="2.5"/>
    <rect x="175" y="30" width="5" height="90" rx="2.5"/>
    <rect x="187" y="34" width="5" height="82" rx="2.5"/>
    <path d="M205 116 V50 a2.5 2.5 0 0 1 5 0 v66 z"/>
    <path d="M215 116 h58 a21 21 0 0 0 3-41.7 A30 30 0 0 0 220 58 a24 24 0 0 0-5 15 v43 z"/>
  </g>
</svg>
